<svg width="1024" height="1024" viewBox="0 0 1024 1024" fill="none" xmlns="http://www.w3.org/2000/svg">
<rect width="1024" height="1024" fill="#1A1C1B"/>
<path opacity="0.3" fill-rule="evenodd" clip-rule="evenodd" d="M322.889 265.398C322.889 252.297 327.857 239.732 336.7 230.468C345.543 221.204 357.536 216 370.042 216H652.958C665.464 216 677.458 221.204 686.3 230.468C695.143 239.732 700.111 252.297 700.111 265.398V462.991C700.111 476.092 695.143 488.657 686.3 497.921C677.458 507.184 665.464 512.389 652.958 512.389H370.042C357.536 512.389 345.543 507.184 336.7 497.921C327.857 488.657 322.889 476.092 322.889 462.991V265.398Z" fill="#0CCC8C"/>
<path fill-rule="evenodd" clip-rule="evenodd" d="M750.443 640.906C752.718 638.611 753.997 635.498 754 632.251V318.879C754 305.886 748.89 293.425 739.795 284.238C730.699 275.05 718.363 269.889 705.5 269.889H317.5C304.637 269.889 292.301 275.05 283.205 284.238C274.11 293.425 269 305.886 269 318.879V759.788C269 772.781 274.11 785.242 283.205 794.429C292.301 803.616 304.637 808.778 317.5 808.778H579.238C582.453 808.775 585.535 807.483 587.807 805.185L750.443 640.906Z" fill="url(#paint0_linear_11_64)"/>
<path fill-rule="evenodd" clip-rule="evenodd" d="M592.333 808.778V693.302C592.333 681.051 597.2 669.302 605.862 660.64C614.525 651.978 626.273 647.111 638.524 647.111H754L592.333 808.778Z" fill="#AFECD6"/>
<path d="M430.667 516.66L481.913 566.278L565.389 485.444" stroke="white" stroke-width="28" stroke-linecap="round" stroke-linejoin="round"/>
<defs>
<linearGradient id="paint0_linear_11_64" x1="450.309" y1="0.444456" x2="970.753" y2="350.643" gradientUnits="userSpaceOnUse">
<stop stop-color="#00C67B"/>
<stop offset="1" stop-color="#00EDB2"/>
</linearGradient>
</defs>
</svg>
